<?xml version="1.0" standalone="no"?>
<!DOCTYPE svg PUBLIC "-//W3C//DTD SVG 20010904//EN"
 "http://www.w3.org/TR/2001/REC-SVG-20010904/DTD/svg10.dtd">
<svg version="1.0" xmlns="http://www.w3.org/2000/svg"
 width="260.000000pt" height="260.000000pt" viewBox="0 0 260.000000 260.000000"
 preserveAspectRatio="xMidYMid meet">
<metadata>
Created by potrace 1.11, written by Peter Selinger 2001-2013
</metadata>
<g transform="translate(0.000000,260.000000) scale(0.100000,-0.100000)"
fill="#000000" stroke="none">
<path d="M602 2340 c-108 -29 -187 -75 -273 -160 -84 -84 -136 -176 -165 -290
-24 -94 -15 -241 19 -340 101 -287 405 -458 702 -395 275 58 469 288 483 570
5 119 -10 194 -65 305 -45 93 -158 210 -250 258 -133 70 -305 90 -451 52z"/>
<path d="M1842 2104 c-262 -70 -423 -335 -357 -589 64 -243 299 -403 542 -368
241 35 422 242 423 483 0 135 -47 247 -146 346 -121 122 -301 172 -462 128z"/>
<path d="M839 1022 c-106 -36 -200 -119 -247 -221 -24 -50 -27 -68 -27 -166 0
-100 2 -115 28 -167 91 -186 294 -277 485 -219 296 90 389 455 171 673 -73 73
-159 110 -267 114 -66 3 -101 0 -143 -14z"/>
</g>
</svg>
