<svg xmlns="http://www.w3.org/2000/svg" width="111.5" height="76.75" viewBox="0 0 111.5 76.75"><path d="M25.066 56.47H11.248l-1.995 6.15H2.825l10.652-32.026h9.128L33.42 62.618h-6.31l-2.042-6.147zm-1.406-4.48l-5.538-16.682L12.68 51.99h10.98zm42.257-21.398v32.026h-10.3l-9.15-17.573c-.456-.876-1.165-2.41-2.135-4.6L43.3 38.148l-1.01-2.3h-.234l.092 2.113.072 2.09.046 4.2v18.37H36.19V30.6h10.3l8.328 16.236c.734 1.44 1.59 3.183 2.56 5.23l1.218 2.607 1.22 2.627h.212l-.072-2.065-.07-2.063-.045-4.13V30.6h6.08zm5.633 32.026V30.592h15.74c3.692 0 6.207.59 7.546 1.77 1.336 1.182 2.007 3.407 2.007 6.676 0 3.958-1.574 6.288-4.718 6.992v.118c3.66.563 5.49 3.105 5.49 7.625 0 3.27-.703 5.56-2.112 6.875-1.407 1.314-3.862 1.97-7.365 1.97h-16.59zm6.075-18.582h7.438c2.41 0 3.945-.266 4.61-.797.665-.54.998-1.76.998-3.69 0-2.57-1.45-3.85-4.36-3.85h-8.68v8.33zm0 13.467h6.664l2.13-.046c2.05 0 3.4-.29 4.05-.868.64-.58.97-1.8.97-3.66 0-1.94-.34-3.16-1.02-3.66-.68-.5-2.36-.75-5.04-.75h-7.76v8.98zm30.48-26.91v32.025h-6.078V30.592h6.077zM43.55.565c.222 1.13 1.352 6.5 1.653 7.563-.146-.02-.312-.043-.514-.043s-.36.022-.51.043c-.08-.782-.38-2.38-.51-2.934-.23-.01-.86-.032-1.49-.032-.49 0-.99.022-1.48.032-.41.587-1.4 2.228-1.76 2.934-.1-.02-.2-.043-.36-.043-.13 0-.26.022-.43.043 1.3-1.837 2.56-3.695 3.81-5.564.56-.836.95-1.38 1.34-2h.21zm-.57 1.326h-.036L41 4.77c.425.022.86.034 1.298.034.424 0 .86-.01 1.296-.033l-.614-2.88zm4.148 6.24c-.11-.02-.255-.04-.458-.04-.19 0-.324.02-.447.05.727-2.62 1.52-6.54 1.757-8.13.12.02.233.05.423.05.168 0 .357-.02.516-.04-.17.58-1.5 6.27-1.8 8.13zm3.022-1.98c-.18-.07-.805-.33-.805-1.21 0-1.02.85-2.05 2.448-2.05.368 0 .524.04.85.13.2.06.335.06.57.06.27 0 .816-.03 1.107-.04 0 .07-.023.14-.023.23s.023.16.023.23c-.537-.03-.795-.04-1.063-.05.123.156.314.406.314.89 0 .61-.32 1.37-1.07 1.776-.52.28-1.15.3-1.51.3-.24 0-.48-.01-.64-.02-.12.074-.46.26-.46.595 0 .435.47.446.83.446 1.27.01 1.67.01 2.08.25.42.24.5.677.5.948 0 .84-.73 2.36-2.88 2.36-.52 0-1.04-.085-1.41-.38-.29-.226-.51-.61-.51-1.03 0-.51.32-.99.74-1.25.25-.15.46-.23.59-.27l.01-.08c-.17-.04-.62-.17-.62-.63 0-.67.625-.942.96-1.094v-.08zm.37 4.49c1.34 0 2-.92 2-1.69 0-.84-.917-.88-1.52-.88-.293 0-.84.02-1.23.27-.55.35-.626.89-.626 1.17 0 .81.66 1.14 1.375 1.14zm.714-4.56c1.084 0 1.487-1.18 1.487-1.85 0-.63-.38-1.03-.98-1.03-1.13 0-1.53 1.17-1.53 1.8 0 .83.56 1.09 1.03 1.09zm7.393 1.68c-.548.32-1.186.48-1.822.48-.963 0-2.226-.51-2.226-2.24 0-1.7 1.16-3.09 2.87-3.09 1.06 0 2 .47 2 1.78 0 .41-.08.7-.13.88-.83-.04-1.14-.05-2.47-.05-.43 0-1.01.01-1.36.02-.03.15-.06.35-.06.63 0 1.42.99 1.69 1.62 1.69.86 0 1.41-.39 1.66-.57h.03l-.148.49zm-3.042-2.67c.46.03 1.063.05 1.522.05.435 0 1.073 0 1.487-.04.033-.13.066-.3.066-.58 0-.97-.626-1.3-1.208-1.3-.602 0-1.53.38-1.867 1.88zm6.23-1.29h.023c.256-.26.828-.87 1.835-.87 1.073 0 1.272.68 1.375 1.06.346-.42.928-1.05 1.955-1.05.974 0 1.454.61 1.454 1.15 0 .23-.077.6-.167 1.01l-.426 1.98c-.134.62-.156.89-.18 1.07-.122-.02-.268-.04-.434-.04-.17 0-.337.024-.482.045.19-.53.873-3.16.873-3.736 0-.61-.42-.96-1.01-.96-.57 0-1.33.35-1.6 1.24-.18.585-.58 2.62-.71 3.454-.12-.02-.29-.042-.42-.042-.17 0-.33.026-.48.047.25-.75.85-3.163.85-3.826 0-.64-.55-.87-.99-.87-.25 0-1.21.08-1.6 1.26-.18.546-.61 2.77-.69 3.437-.12-.02-.272-.04-.44-.04-.157 0-.326.02-.448.043.37-1.25.96-3.946 1.12-5.15.09.023.254.044.39.044.154 0 .31-.02.46-.04l-.227.815zm11.723 3.95c-.55.32-1.186.48-1.82.48-.965 0-2.227-.51-2.227-2.24 0-1.7 1.17-3.09 2.88-3.09 1.06 0 2.01.47 2.01 1.78 0 .41-.08.7-.12.88-.82-.04-1.14-.05-2.47-.05-.42 0-1 .01-1.35.02-.02.15-.05.35-.05.63 0 1.42 1 1.69 1.63 1.69.86 0 1.405-.39 1.663-.57h.033l-.145.49zm-3.04-2.66c.457.03 1.06.05 1.52.05.435 0 1.073 0 1.486-.05.033-.13.066-.31.066-.59 0-.97-.628-1.3-1.21-1.3-.6 0-1.53.38-1.865 1.88zm8.632 2.66c-.547.32-1.186.48-1.822.48-.963 0-2.226-.51-2.226-2.24 0-1.7 1.163-3.09 2.873-3.09 1.062 0 2.003.47 2.003 1.78 0 .41-.08.7-.124.88-.826-.04-1.14-.05-2.47-.05-.427 0-1.007.01-1.354.02-.023.148-.057.35-.057.63 0 1.42.996 1.69 1.622 1.69.86 0 1.408-.39 1.666-.574h.04l-.14.49zm-3.04-2.66c.457.04 1.06.05 1.52.05.435 0 1.073 0 1.487-.05.033-.13.066-.31.066-.59 0-.97-.626-1.3-1.208-1.3-.603 0-1.53.38-1.866 1.88zm6.274-1.3l.045.02c.31-.38.99-.88 1.84-.88.79 0 1.56.44 1.56 1.31 0 .287-.03.39-.26 1.37-.13.51-.46 2.08-.51 2.53-.12-.02-.27-.04-.43-.04-.17 0-.36.025-.49.046.16-.49.83-2.98.83-3.727 0-.65-.55-.96-1.11-.96-.37 0-1.287.18-1.62 1.17-.26.75-.72 3.187-.776 3.53-.11-.02-.254-.04-.41-.04-.157 0-.325.024-.45.045.305-1 .986-4.273 1.13-5.15.11.02.25.04.4.04.14 0 .295-.02.43-.04l-.21.8zm9.73-3.2c.65 1.13 3.725 5.48 4.273 6.1.188-.68.938-4.18 1.15-6 .1.02.257.05.392.05.14 0 .22-.027.33-.048-.42 1.39-1.57 6.553-1.69 7.563h-.15c-.35-.6-3.82-5.49-4.27-6.054-.33 1.284-1.1 4.935-1.18 5.935-.11-.02-.24-.044-.38-.044-.13 0-.28.023-.39.044.51-1.49 1.61-6.575 1.77-7.542h.13zm10.38 6.81l-.044-.04c-.358.415-.984.903-1.902.903-.737 0-1.565-.45-1.565-1.25 0-.28.146-.84.347-1.72.09-.38.336-1.52.438-2.31.134.02.302.04.49.04.182 0 .337-.02.483-.04-.3 1.08-.87 3.1-.87 3.7 0 .67.41 1.04 1.09 1.04.86 0 1.44-.6 1.67-1.26.28-.816.71-3.29.74-3.49.16.02.31.04.45.04.17 0 .33-.02.46-.04-.22.716-.98 3.834-1.13 5.15-.13-.022-.26-.044-.4-.044-.17 0-.31.02-.43.04l.2-.74zm4.72-5.77c-.145.5-.257 1-.37 1.5.35 0 .773-.03 1.164-.04-.044.15-.066.29-.066.44-.39-.01-.85-.04-1.187-.04l-.435 2.04c-.1.47-.256 1.18-.256 1.53 0 .58.467.8.792.8.258 0 .516-.086.74-.216l-.022.28c-.304.23-.77.34-1.142.34-.58 0-1.196-.35-1.196-1.02 0-.285.08-.61.156-.97.323-1.49.38-1.65.604-2.77-.213 0-.49.01-.737.02.04-.12.06-.207.06-.423.23.01.52.04.71.04l.2-1.15.97-.35zM18.55 16.33c1.296.12 1.677.902 1.677 1.467 0 .79-.524 1.65-1.442 2.09-.738.36-1.6.39-2.013.39-.223 0-1.207-.04-1.41-.04-.21 0-.356.02-.502.04.57-2.1 1.308-5.53 1.62-7.45.158.01.403.043.593.043.425 0 .94-.044 1.453-.044.616 0 1.04.072 1.375.25.52.27.7.76.7 1.12 0 1.082-1.12 1.88-2.02 2.04l-.02.075zm-.593.207c-.235-.04-.513-.05-.77-.05-.203 0-.438 0-.627.01-.3 1.39-.526 2.5-.67 3.35.28.05.547.05.716.05.37 0 .95-.04 1.43-.23.693-.29 1.264-1.08 1.264-1.87 0-.77-.605-1.18-1.343-1.27zm.392-3.34c-.34 0-.69.01-1.02.04-.38 1.52-.52 2.08-.69 2.88.16.02.33.03.58.03.39 0 1.06-.03 1.56-.33.61-.36.89-.98.89-1.51 0-.81-.58-1.12-1.34-1.12zm7.11 6.7c-.55.31-1.19.48-1.83.48-.97 0-2.23-.51-2.23-2.24 0-1.71 1.16-3.1 2.87-3.1 1.06 0 2 .46 2 1.78 0 .4-.08.69-.13.88-.83-.04-1.14-.06-2.47-.06-.43 0-1.01.01-1.35.02-.03.144-.06.35-.06.63 0 1.415.99 1.687 1.62 1.687.86 0 1.41-.39 1.66-.576h.035l-.15.49zm-3.05-2.66c.46.03 1.06.04 1.52.04.43 0 1.07 0 1.49-.05.03-.13.06-.304.06-.586 0-.964-.63-1.29-1.21-1.29-.61 0-1.53.38-1.87 1.88zm7.69-2.21c1.77 0 2.38 1.02 2.38 2.11 0 1.6-1.24 3.24-3.17 3.24-1.85 0-2.34-1.25-2.34-2.183 0-1.55 1.19-3.17 3.12-3.17zm-.82 5.01c1.68 0 2.31-2.01 2.31-3.09 0-.906-.53-1.58-1.49-1.58-1.62 0-2.25 1.88-2.25 3.087 0 .91.41 1.575 1.42 1.575zm5.09-1.74c-.18-.08-.81-.34-.81-1.22 0-1.02.85-2.057 2.45-2.057.36 0 .52.04.85.13.2.052.33.052.57.052.26 0 .81-.034 1.1-.045 0 .065-.03.14-.03.23 0 .085.022.16.022.227-.54-.03-.8-.04-1.067-.05.123.153.314.403.314.89 0 .61-.32 1.37-1.07 1.773-.525.284-1.15.305-1.51.305-.245 0-.48-.01-.65-.02-.12.08-.455.26-.455.6 0 .437.47.448.827.448 1.265.012 1.668.012 2.08.25.414.24.49.675.49.946 0 .84-.735 2.36-2.88 2.36-.525 0-1.04-.09-1.41-.38-.29-.23-.515-.61-.515-1.035 0-.51.314-.99.74-1.25.25-.15.46-.23.582-.27l.01-.08c-.17-.04-.617-.17-.617-.63 0-.67.63-.942.96-1.1v-.07zm.36 4.48c1.34 0 2-.922 2-1.693 0-.85-.92-.88-1.52-.88-.29 0-.84.02-1.23.27-.55.35-.63.89-.63 1.164 0 .816.66 1.14 1.374 1.14zm.71-4.562c1.082 0 1.483-1.184 1.483-1.847 0-.63-.38-1.04-.98-1.04-1.13 0-1.53 1.163-1.53 1.794 0 .825.557 1.086 1.027 1.086zm7.39 1.673c-.55.31-1.186.48-1.82.48-.96 0-2.227-.52-2.227-2.24 0-1.71 1.16-3.1 2.87-3.1 1.063 0 2.003.46 2.003 1.78 0 .4-.08.69-.12.88-.83-.04-1.14-.058-2.47-.058-.428 0-1.008.01-1.356.02-.023.143-.056.35-.056.63 0 1.414.997 1.686 1.62 1.686.86 0 1.41-.39 1.67-.577H43l-.145.49zm-3.04-2.67c.46.03 1.06.042 1.52.042.44 0 1.075 0 1.49-.04.033-.13.066-.306.066-.588 0-.966-.623-1.292-1.205-1.292-.604 0-1.53.38-1.867 1.88zm6.28-1.3l.044.02c.315-.38.997-.88 1.846-.88.79 0 1.56.434 1.56 1.303 0 .28-.023.39-.256 1.37-.13.51-.46 2.078-.508 2.53-.127-.02-.27-.04-.428-.04-.17 0-.36.02-.49.04.16-.49.833-2.974.833-3.724 0-.65-.55-.97-1.103-.97-.37 0-1.283.173-1.62 1.16-.255.75-.713 3.186-.77 3.53-.11-.02-.26-.04-.413-.04-.155 0-.323.02-.446.043.3-1 .98-4.27 1.13-5.15.11.02.245.04.4.04.13 0 .29-.02.424-.04l-.21.803zm8.633 3.38c-.367.454-.894 1.11-1.99 1.11-1.35 0-2.01-1-2.01-2.12 0-1.37.95-3.25 2.92-3.25 1.2 0 1.53.73 1.69 1.073h.045c.267-1.37.582-2.79.77-3.98.123.02.28.04.447.04.17 0 .32-.02.44-.04-.65 2.573-.884 3.77-1.364 6.06-.11.53-.27 1.337-.38 2.064-.1-.02-.19-.042-.38-.042s-.3.023-.424.044l.24-.963zm-1.754.682c1.69 0 2.17-2.13 2.17-3.076 0-.438-.143-1.48-1.36-1.48-1.74 0-2.155 2.085-2.155 2.922 0 1.055.49 1.63 1.35 1.63zm8.12-.1c-.545.316-1.18.48-1.82.48-.96 0-2.22-.51-2.22-2.24 0-1.705 1.164-3.096 2.875-3.096 1.065 0 2 .464 2 1.78 0 .4-.074.694-.12.88-.825-.044-1.14-.055-2.47-.055-.422 0-1.004.01-1.35.02-.023.14-.056.35-.056.63 0 1.41.99 1.683 1.62 1.683.86 0 1.41-.39 1.665-.575h.04l-.15.49zm-3.04-2.66c.46.03 1.064.042 1.52.042.44 0 1.076 0 1.49-.042.034-.13.067-.303.067-.585 0-.97-.62-1.295-1.2-1.295-.607 0-1.534.38-1.87 1.88zm9.44-4.4c.137.02.326.04.48.04.18 0 .37-.02.517-.044-.6 2.226-1.293 5.44-1.63 7.44-.13-.02-.3-.042-.49-.042-.17 0-.36.02-.5.045.57-2.1 1.31-5.53 1.63-7.447zm3.057 3.094l.05.02c.31-.38.994-.88 1.843-.88.796 0 1.567.435 1.567 1.304 0 .28-.028.39-.26 1.37-.127.51-.46 2.073-.508 2.53-.12-.02-.27-.045-.427-.045-.17 0-.357.025-.49.046.166-.49.84-2.98.84-3.73 0-.65-.55-.97-1.11-.97-.368 0-1.285.172-1.62 1.16-.258.75-.716 3.183-.77 3.53-.11-.02-.26-.04-.415-.04s-.325.02-.448.04c.3-1 .98-4.27 1.13-5.15.11.03.24.05.4.05.13 0 .29-.02.42-.04l-.214.804zm7.72.063c-.11-.4-.49-.64-.915-.64-.65 0-1.06.53-1.06 1.03 0 .536.46.74.96.96.47.21 1.01.447 1.01 1.154 0 1-1.006 1.9-2.3 1.9-.46 0-.818-.082-1.21-.31.17-.26.29-.564.355-.73h.08c.166.438.61.65 1.105.65.85 0 1.22-.64 1.22-1.12 0-.473-.3-.615-.897-.89-.48-.214-1.02-.464-1.02-1.25 0-.74.55-1.75 2.05-1.75.403 0 .66.068 1.02.22-.226.49-.26.64-.29.785h-.1zm3.44-2.22c-.145.5-.257 1-.37 1.5.35 0 .77-.033 1.163-.043-.042.152-.064.293-.064.446-.39-.01-.85-.044-1.182-.044l-.434 2.04c-.104.47-.26 1.172-.26 1.52 0 .575.47.792.794.792.26 0 .517-.088.74-.218l-.02.28c-.3.23-.77.335-1.14.335-.58 0-1.197-.35-1.197-1.022 0-.28.08-.6.16-.96.32-1.49.38-1.653.6-2.772-.21 0-.49.01-.73.02.04-.12.06-.2.06-.42.24.01.53.04.72.04l.2-1.15.977-.34zm5.09 6.128c-.548.318-1.186.48-1.82.48-.964 0-2.228-.51-2.228-2.24 0-1.703 1.16-3.094 2.87-3.094 1.06 0 2 .47 2 1.78 0 .407-.08.7-.122.88-.83-.04-1.14-.05-2.47-.05-.43 0-1.01.01-1.357.02-.02.146-.05.35-.05.63 0 1.417.99 1.69 1.62 1.69.86 0 1.4-.39 1.66-.58h.03l-.145.49zm-3.04-2.66c.456.03 1.06.045 1.52.045.437 0 1.073 0 1.486-.05.033-.13.066-.3.066-.584 0-.967-.63-1.293-1.21-1.293-.604 0-1.53.38-1.87 1.88zm5.424 3.04c-.11-.02-.255-.04-.46-.04-.185 0-.32.02-.444.044.73-2.62 1.52-6.54 1.756-8.13.12.02.234.04.425.04.17 0 .36-.02.52-.04-.17.58-1.5 6.27-1.79 8.13zm2.698 0c-.11-.02-.26-.04-.46-.04-.19 0-.326.02-.448.044.726-2.62 1.52-6.54 1.753-8.13.127.02.24.04.428.04.17 0 .36-.02.513-.04-.17.58-1.5 6.27-1.79 8.13zm2.73 0c-.17-.02-.35-.04-.517-.04-.18 0-.323.02-.436.044.49-1.54 1.094-4.74 1.15-5.15.166.02.312.04.47.04.17 0 .324-.02.46-.045-.214.714-.986 3.855-1.13 5.15zm1.05-7.39c.3 0 .533.24.533.527 0 .28-.23.52-.535.52-.3 0-.535-.24-.535-.52s.236-.52.537-.52zm2.46 3.047l.043.03c.314-.38.996-.88 1.846-.88.79 0 1.56.434 1.56 1.303 0 .28-.02.39-.26 1.37-.124.51-.46 2.074-.503 2.53-.123-.02-.27-.04-.424-.04-.17 0-.357.02-.49.04.17-.49.84-2.978.84-3.728 0-.65-.55-.964-1.11-.964-.367 0-1.284.177-1.62 1.166-.26.75-.714 3.182-.77 3.53-.11-.02-.26-.04-.414-.04s-.32.02-.446.04c.3-1 .98-4.27 1.13-5.15.11.02.243.04.4.04.134 0 .29-.02.425-.04l-.21.806zm5.692 2.37c-.18-.07-.807-.33-.807-1.21 0-1.02.855-2.054 2.45-2.054.37 0 .528.044.85.13.2.055.338.055.57.055.27 0 .82-.032 1.108-.043 0 .065-.02.14-.02.23 0 .085.02.16.02.227-.54-.032-.797-.043-1.06-.054.12.155.31.405.31.89 0 .61-.327 1.37-1.076 1.775-.525.28-1.15.3-1.51.3-.247 0-.48-.01-.648-.02-.127.07-.46.26-.46.594 0 .432.47.443.83.443 1.26.014 1.66.014 2.075.25s.49.677.49.948c0 .84-.74 2.36-2.89 2.36-.53 0-1.04-.08-1.41-.38-.29-.23-.514-.61-.514-1.03 0-.51.31-.985.738-1.25.246-.15.46-.225.58-.27l.013-.075c-.17-.042-.613-.173-.613-.63 0-.673.63-.944.96-1.096v-.07zm.37 4.49c1.34 0 2-.92 2-1.69 0-.85-.92-.88-1.52-.88-.29 0-.84.02-1.23.27-.55.35-.63.89-.63 1.163 0 .814.66 1.14 1.376 1.14zm.714-4.56c1.08 0 1.48-1.185 1.48-1.85 0-.63-.38-1.03-.987-1.03-1.13 0-1.53 1.16-1.53 1.793 0 .823.56 1.084 1.03 1.084zM2.03 76.778C.912 76.77 0 75.86 0 74.74v-.378c0-1.12.917-2.036 2.036-2.036h107.27c1.122 0 2.038.916 2.038 2.036v.378c0 1.12-.916 2.036-2.037 2.036H2.037z" fill="#004990"/></svg>