<svg xmlns="http://www.w3.org/2000/svg" width="335" height="62.5" viewBox="0 0 335 62.5"><path d="M86.872 10.273h1.816V24.74h-1.816V10.273zm8.188 5.59c.72-1.596 1.955-2.393 3.703-2.393 1.303 0 2.318.43 3.047 1.287.73.86 1.093 2.032 1.093 3.52v6.463h-1.794v-6.463c0-1.06-.25-1.855-.75-2.393-.5-.536-1.21-.805-2.13-.805s-1.665.37-2.23 1.12c-.57.753-.868 1.795-.898 3.13v5.405H93.29v-10.99h1.564l.206 2.115zm17.87 8.555c-1.318.613-2.52.744-3.61.392-.782-.245-1.334-.76-1.656-1.54-.17-.385-.253-.845-.253-1.38v-6.764h-1.77v-1.38h1.77v-3.06h1.8v3.06h3.45v1.38h-3.45v6.74c0 1.118.52 1.678 1.564 1.678.567 0 1.203-.138 1.91-.414l.252 1.288zm6.694-.898c1.518 0 2.384-.666 2.6-2h1.862c-.17 1.104-.655 1.96-1.46 2.564-.806.605-1.806.908-3.002.908-1.472 0-2.668-.525-3.588-1.575-.92-1.05-1.38-2.45-1.38-4.197 0-1.748.463-3.144 1.39-4.187s2.163-1.563 3.704-1.563 2.69.598 3.45 1.794c.76 1.195 1.023 2.652.794 4.37h-7.52c0 1.135.275 2.065.827 2.794s1.33 1.093 2.33 1.093zm1.334-8.325c-.354-.184-.782-.276-1.288-.276-.936 0-1.676.312-2.22.95-.544.635-.862 1.43-.954 2.38h5.865c0-1.534-.463-2.554-1.4-3.06zm11.2.092c-1.732 0-2.63 1.365-2.69 4.094v5.36h-1.817V13.73h1.82v2.115c.55-1.534 1.528-2.3 2.92-2.3.448 0 .87.068 1.27.206l-.093 1.77c-.46-.153-.93-.23-1.404-.23zm6.026.575c.72-1.595 1.955-2.392 3.703-2.392 1.303 0 2.318.43 3.047 1.287.73.86 1.093 2.032 1.093 3.52v6.463h-1.794v-6.463c0-1.06-.25-1.855-.748-2.393-.498-.536-1.207-.805-2.127-.805s-1.664.37-2.23 1.12c-.568.753-.867 1.795-.897 3.13v5.405h-1.81v-10.99h1.563l.206 2.115zm18.93 1.748c0-.997-.208-1.71-.62-2.14-.416-.43-1.018-.644-1.808-.644s-1.426.157-1.908.472c-.483.314-.725.81-.725 1.483h-2c0-1.68.903-2.723 2.713-3.122.552-.123 1.15-.184 1.794-.184 1.364 0 2.43.345 3.197 1.034.767.69 1.15 1.74 1.15 3.15v7.085h-1.564l-.185-1.84c-.675 1.396-1.894 2.093-3.657 2.093-1.18 0-2.12-.327-2.84-.987-.71-.66-1.063-1.48-1.063-2.46s.395-1.75 1.185-2.3c.79-.554 1.774-.83 2.955-.83s2.308.2 3.38.6v-1.41zm0 2.553c-1.09-.307-2.04-.46-2.853-.46-.81 0-1.47.146-1.973.438s-.76.757-.76 1.38c0 1.38.783 2.07 2.347 2.07.89 0 1.65-.312 2.29-.95.635-.635.954-1.46.954-2.472zm11.82 4.255c-1.32.613-2.52.744-3.61.392-.782-.245-1.334-.76-1.656-1.54-.17-.385-.253-.845-.253-1.38v-6.764h-1.77v-1.38h1.77v-3.06h1.794v3.06h3.45v1.38h-3.45v6.74c0 1.118.52 1.678 1.56 1.678.565 0 1.2-.138 1.91-.414l.25 1.288zm3.91-13.27c-.368 0-.655-.105-.862-.31s-.31-.485-.31-.83.103-.62.31-.828.494-.31.862-.31.663.103.886.31c.222.207.333.483.333.828s-.11.62-.333.828c-.223.208-.518.31-.886.31zm-.896 2.576h1.816V24.74h-1.816V13.724zm10.718-.254c1.533 0 2.77.5 3.714 1.495.943.997 1.415 2.423 1.415 4.278 0 1.84-.472 3.26-1.415 4.255-.942.997-2.18 1.495-3.714 1.495-1.534 0-2.77-.498-3.715-1.495-.94-.996-1.41-2.415-1.41-4.255 0-1.855.47-3.28 1.416-4.278.944-.996 2.18-1.494 3.716-1.494zm3.29 5.76c0-1.31-.277-2.337-.83-3.08-.55-.744-1.36-1.116-2.426-1.116s-1.883.372-2.45 1.115c-.566.74-.85 1.77-.85 3.08s.268 2.34.805 3.08c.536.742 1.337 1.114 2.403 1.114 1.065 0 1.89-.373 2.473-1.117.588-.743.88-1.77.88-3.08zm7.06-3.368c.72-1.595 1.954-2.392 3.702-2.392 1.303 0 2.318.43 3.047 1.287.73.86 1.093 2.032 1.093 3.52v6.463h-1.794v-6.463c0-1.06-.25-1.855-.748-2.393-.498-.536-1.207-.805-2.127-.805s-1.67.37-2.237 1.12c-.567.753-.866 1.795-.896 3.13v5.405h-1.817v-10.99h1.565l.205 2.115zm18.928 1.748c0-.997-.207-1.71-.62-2.14-.415-.43-1.017-.644-1.807-.644s-1.426.157-1.908.472c-.49.314-.73.81-.73 1.483h-2c0-1.68.902-2.723 2.712-3.122.552-.123 1.15-.184 1.794-.184 1.364 0 2.43.345 3.197 1.034.767.69 1.15 1.74 1.15 3.15v7.085h-1.564l-.185-1.84c-.677 1.396-1.896 2.093-3.66 2.093-1.18 0-2.126-.327-2.84-.987-.712-.66-1.07-1.48-1.07-2.46s.397-1.75 1.187-2.3c.79-.554 1.774-.83 2.955-.83s2.308.2 3.38.6v-1.41zm0 2.553c-1.09-.307-2.04-.46-2.852-.46-.813 0-1.473.146-1.98.438s-.758.757-.758 1.38c0 1.38.782 2.07 2.346 2.07.89 0 1.652-.312 2.29-.95.635-.635.954-1.46.954-2.472zm6.072-11.086h1.816V24.74h-1.816V9.077zm16.928.943c1.55 0 2.795.388 3.737 1.162.95.774 1.597 1.782 1.95 3.024l-1.955.392c-.307-.905-.785-1.622-1.437-2.15-.652-.53-1.415-.794-2.29-.794-1.21 0-2.215.506-3.012 1.518-.797 1.013-1.195 2.42-1.195 4.22s.356 3.248 1.07 4.337 1.76 1.63 3.14 1.63c1.15 0 2.058-.306 2.725-.91.666-.607 1-1.408 1-2.405h1.954c0 1.52-.518 2.722-1.553 3.61-1.035.89-2.454 1.334-4.255 1.334-1.8 0-3.26-.69-4.37-2.07-1.11-1.38-1.666-3.228-1.666-5.543 0-2.314.573-4.12 1.724-5.416 1.15-1.297 2.63-1.944 4.44-1.944zm10.9 5.75c.737-1.532 1.956-2.3 3.658-2.3 1.303 0 2.32.43 3.048 1.288.728.86 1.092 2.032 1.092 3.52v6.463h-1.794v-6.46c0-1.06-.25-1.85-.747-2.39-.492-.535-1.21-.804-2.15-.804-.93 0-1.682.396-2.25 1.185-.565.79-.85 1.883-.85 3.277v5.198h-1.816V9.077h1.816v6.694zm13.088-4.623c-.368 0-.655-.104-.862-.31s-.31-.484-.31-.83.103-.62.31-.827.494-.31.862-.31.663.103.886.31c.222.207.333.483.333.828s-.11.62-.33.828c-.22.208-.52.31-.883.31zm-.896 2.577h1.816V24.74h-1.816V13.724zm6.76-4.647h1.817V24.74h-1.816V9.077zm13.64 6.303V9.076h1.795V24.74h-1.47l-.23-1.84c-.35.69-.82 1.21-1.4 1.563s-1.22.53-1.91.53c-1.394 0-2.562-.537-3.505-1.61-.942-1.073-1.414-2.473-1.414-4.198 0-1.725.464-3.108 1.39-4.15s2.1-1.564 3.52-1.564 2.496.64 3.23 1.91zm-3.13-.3c-.887 0-1.635.376-2.24 1.127-.605.752-.91 1.756-.91 3.014 0 1.26.31 2.27.92 3.03.615.76 1.35 1.138 2.21 1.138.858 0 1.59-.287 2.196-.862s.924-1.345.955-2.31V18.42c0-1.028-.3-1.84-.897-2.44-.598-.6-1.342-.897-2.232-.897zM91.104 36.273c2.178 0 3.922.655 5.232 1.966 1.312 1.31 1.967 3.06 1.967 5.262s-.655 3.956-1.967 5.267c-1.31 1.312-3.055 1.967-5.232 1.967H86.85V36.273h4.254zm-2.437 12.88h2.438c1.61 0 2.89-.532 3.842-1.6.95-1.064 1.426-2.418 1.426-4.06s-.48-2.985-1.438-4.035c-.96-1.05-2.235-1.576-3.83-1.576h-2.438v11.27zm17.204.367c1.52 0 2.388-.666 2.6-2h1.866c-.17 1.104-.655 1.96-1.46 2.564-.806.605-1.806.908-3.002.908-1.47 0-2.667-.525-3.587-1.575-.92-1.05-1.38-2.45-1.38-4.197 0-1.748.463-3.144 1.39-4.187S104.46 39.47 106 39.47s2.69.598 3.45 1.794c.76 1.195 1.022 2.652.793 4.37h-7.52c0 1.135.276 2.065.828 2.794s1.33 1.093 2.326 1.093zm1.338-8.325c-.354-.184-.782-.276-1.288-.276-.937 0-1.677.312-2.22.95-.545.635-.863 1.43-.955 2.38h5.865c0-1.534-.47-2.554-1.404-3.06zm6.853-1.45l3.31 9.086 3.335-9.08h2.047l-4.37 10.995h-2l-4.37-10.993h2.05zm15.226 9.775c1.518 0 2.384-.666 2.6-2h1.862c-.17 1.104-.655 1.96-1.46 2.564-.806.605-1.806.908-3.002.908-1.472 0-2.668-.525-3.588-1.575-.92-1.05-1.38-2.45-1.38-4.197 0-1.748.463-3.144 1.39-4.187s2.163-1.563 3.704-1.563 2.69.598 3.45 1.794c.76 1.195 1.02 2.652.794 4.37h-7.52c0 1.135.275 2.065.827 2.794s1.325 1.093 2.32 1.093zm1.334-8.325c-.356-.184-.784-.276-1.29-.276-.938 0-1.678.312-2.22.95-.546.635-.864 1.43-.956 2.38h5.865c0-1.534-.47-2.554-1.407-3.06zm6.714-6.118h1.816V50.74h-1.817V35.077zm10.397 4.393c1.535 0 2.77.5 3.716 1.495.943.997 1.415 2.423 1.415 4.278 0 1.84-.47 3.26-1.414 4.255-.942.997-2.18 1.495-3.714 1.495-1.534 0-2.77-.498-3.715-1.495-.943-.996-1.414-2.415-1.414-4.255 0-1.855.47-3.28 1.413-4.278.944-.996 2.18-1.494 3.715-1.494zm3.29 5.76c0-1.31-.275-2.337-.83-3.08-.55-.744-1.36-1.116-2.424-1.116s-1.883.372-2.45 1.115c-.566.74-.85 1.77-.85 3.08s.268 2.34.805 3.08c.537.742 1.338 1.114 2.404 1.114s1.89-.373 2.475-1.117c.58-.743.873-1.77.873-3.08zm7.016-3.805c.72-1.303 1.797-1.954 3.23-1.954 1.435 0 2.63.53 3.59 1.59.957 1.06 1.437 2.456 1.437 4.19s-.482 3.123-1.45 4.174C163.88 50.474 162.69 51 161.28 51c-1.41 0-2.454-.53-3.13-1.588v6.74h-1.816v-16.4h1.495l.204 1.68zm3.15 7.958c.858 0 1.614-.367 2.266-1.104s.977-1.75.977-3.03-.31-2.296-.933-3.048c-.62-.75-1.376-1.127-2.266-1.127-.89 0-1.62.28-2.186.84s-.866 1.313-.897 2.265v2.094c0 .965.29 1.724.874 2.276.584.55 1.305.828 2.16.828zm10.557-7.52c.723-1.596 1.957-2.393 3.705-2.393.95 0 1.748.233 2.392.7s1.11 1.116 1.402 1.944c.687-1.763 1.97-2.645 3.84-2.645 1.317 0 2.337.423 3.06 1.28.72.86 1.08 2.033 1.08 3.52v6.464h-1.795V44.27c0-1.06-.25-1.854-.747-2.392-.5-.536-1.216-.805-2.15-.805-.936 0-1.66.384-2.174 1.15s-.77 1.824-.77 3.174v5.335h-1.795V44.27c0-1.06-.25-1.856-.745-2.394-.498-.537-1.207-.806-2.127-.806s-1.664.376-2.23 1.127c-.568.753-.867 1.795-.897 3.13v5.404h-1.817V39.74h1.563l.206 2.116zm23.553 7.657c1.518 0 2.384-.666 2.6-2h1.862c-.17 1.104-.655 1.96-1.46 2.564-.806.605-1.806.908-3.002.908-1.472 0-2.668-.525-3.588-1.575-.92-1.05-1.38-2.45-1.38-4.197 0-1.748.463-3.144 1.39-4.187s2.163-1.563 3.704-1.563 2.69.598 3.45 1.794c.76 1.195 1.023 2.652.794 4.37h-7.52c0 1.135.275 2.065.827 2.794s1.325 1.093 2.32 1.093zm1.334-8.325c-.355-.184-.783-.276-1.29-.276-.936 0-1.676.312-2.22.95-.544.635-.862 1.43-.954 2.38h5.865c0-1.534-.47-2.554-1.403-3.06zm8.463.667c.72-1.595 1.956-2.392 3.704-2.392 1.303 0 2.318.43 3.047 1.287.73.86 1.094 2.032 1.094 3.52v6.463h-1.795v-6.463c0-1.06-.25-1.855-.75-2.393-.498-.536-1.207-.805-2.127-.805s-1.664.37-2.23 1.12c-.568.753-.867 1.795-.897 3.13v5.405h-1.818v-10.99h1.562l.206 2.115zm17.87 8.556c-1.317.613-2.52.744-3.61.392-.78-.245-1.333-.76-1.655-1.54-.17-.385-.254-.845-.254-1.38v-6.764h-1.77v-1.38h1.77v-3.06h1.796v3.06h3.45v1.38h-3.45v6.74c0 1.118.52 1.678 1.564 1.678.566 0 1.202-.138 1.908-.414l.253 1.288zm8.374-14.145h1.816V50.74h-1.818V36.273zm8.187 5.59c.723-1.596 1.957-2.393 3.705-2.393 1.3 0 2.316.43 3.045 1.287.73.86 1.095 2.032 1.095 3.52v6.463h-1.793v-6.463c0-1.06-.25-1.855-.747-2.393-.497-.536-1.206-.805-2.126-.805s-1.665.37-2.23 1.12c-.57.753-.868 1.795-.898 3.13v5.405h-1.818v-10.99h1.565l.205 2.115zm13.135-4.716c-.37 0-.657-.104-.864-.31s-.31-.484-.31-.83.103-.62.31-.827.494-.31.862-.31.662.103.885.31c.223.207.334.483.334.828s-.11.62-.334.828c-.222.208-.517.31-.885.31zm-.9 2.577h1.817V50.74h-1.817V39.724zm12.514 10.694c-1.32.613-2.522.744-3.61.392-.783-.245-1.335-.76-1.657-1.54-.17-.385-.254-.845-.254-1.38v-6.764h-1.773v-1.38h1.77v-3.06h1.796v3.06h3.45v1.38h-3.45v6.74c0 1.118.52 1.678 1.564 1.678.567 0 1.203-.138 1.91-.414l.252 1.288zm3.91-13.27c-.37 0-.656-.105-.863-.31s-.31-.485-.31-.83.104-.62.31-.828.495-.31.863-.31.662.103.885.31c.22.207.332.483.332.828s-.11.62-.333.828c-.224.208-.52.31-.887.31zm-.897 2.576h1.815V50.74h-1.817V39.724zm13.567 3.886c0-.997-.205-1.71-.62-2.14-.413-.43-1.015-.644-1.805-.644s-1.427.157-1.91.472c-.482.314-.724.81-.724 1.483h-2c0-1.68.904-2.723 2.714-3.122.553-.123 1.15-.184 1.795-.184 1.364 0 2.43.345 3.197 1.034.767.69 1.15 1.74 1.15 3.15v7.085h-1.564l-.183-1.84c-.676 1.396-1.895 2.093-3.658 2.093-1.18 0-2.128-.327-2.84-.987-.714-.66-1.07-1.48-1.07-2.46s.395-1.75 1.185-2.3c.79-.554 1.774-.83 2.955-.83s2.31.2 3.38.6v-1.41zm0 2.553c-1.087-.307-2.037-.46-2.85-.46-.813 0-1.473.146-1.98.438s-.76.757-.76 1.38c0 1.38.784 2.07 2.348 2.07.89 0 1.652-.312 2.29-.95.636-.635.954-1.46.954-2.472zm11.824 4.255c-1.32.613-2.52.744-3.61.392-.783-.245-1.335-.76-1.657-1.54-.17-.385-.252-.845-.252-1.38v-6.764h-1.77v-1.38h1.77v-3.06h1.795v3.06h3.45v1.38h-3.45v6.74c0 1.118.52 1.678 1.564 1.678.57 0 1.203-.138 1.91-.414l.252 1.288zm3.91-13.27c-.368 0-.655-.105-.86-.31s-.31-.485-.31-.83.103-.62.31-.828.494-.31.862-.31.663.103.886.31c.22.207.33.483.33.828s-.11.62-.332.828c-.224.208-.52.31-.887.31zm-.897 2.576h1.817V50.74h-1.817V39.724zm6.9.022l3.31 9.085 3.337-9.08h2.046l-4.37 10.995h-2.003l-4.37-10.993h2.047zm15.225 9.774c1.52 0 2.386-.666 2.6-2h1.864c-.17 1.104-.655 1.96-1.46 2.564-.806.605-1.806.908-3 .908-1.47 0-2.668-.525-3.588-1.575-.92-1.05-1.38-2.45-1.38-4.197 0-1.748.463-3.144 1.39-4.187s2.163-1.563 3.704-1.563 2.69.598 3.45 1.794c.76 1.195 1.023 2.652.794 4.37h-7.52c0 1.135.277 2.065.83 2.794s1.325 1.093 2.322 1.093zm1.336-8.325c-.353-.184-.78-.276-1.287-.276-.936 0-1.676.312-2.22.95-.544.635-.862 1.43-.954 2.38h5.865c0-1.534-.47-2.554-1.404-3.06zm7.303-.92c.774-.537 1.82-.805 3.14-.805s2.35.275 3.094.827c.744.553 1.132 1.25 1.162 2.094h-1.77c-.14-.99-.983-1.49-2.53-1.49-.753 0-1.33.17-1.738.507s-.61.7-.61 1.093c0 .39.154.72.46.987.308.27.798.503 1.473.702l2.207.733c.936.293 1.652.665 2.15 1.117s.748 1.073.748 1.86c0 .79-.407 1.504-1.22 2.14-.812.637-1.947.955-3.403.955s-2.59-.325-3.403-.978c-.814-.65-1.244-1.49-1.29-2.52h1.747c.03.69.31 1.21.84 1.554.53.346 1.19.52 1.99.52.797 0 1.456-.17 1.978-.507s.783-.74.783-1.205-.152-.824-.46-1.07-.804-.46-1.494-.643l-2.137-.714c-1.917-.565-2.875-1.562-2.875-2.99 0-.902.383-1.622 1.16-2.16z" fill="#636464"/><circle fill="#F7C53B" cx="46.701" cy="46.702" r="8.154"/><path fill="#EF7622" d="M38.545 21.317c0 7.877 6.39 14.266 14.27 14.266 7.877 0 14.266-6.388 14.266-14.266 0-7.88-6.383-14.27-14.26-14.27-7.88.002-14.27 6.39-14.27 14.27z"/><path fill="#48B9A7" d="M35.582 50.41c0 6.55-5.31 11.858-11.86 11.858S11.858 56.96 11.858 50.41c0-6.552 5.31-11.862 11.86-11.862S35.58 43.858 35.58 50.41z"/><circle fill="#D25037" cx="17.791" cy="17.79" r="17.791"/><circle fill="#F7C53B" cx="46.701" cy="46.702" r="8.154"/><path fill="#EF7622" d="M38.545 21.317c0 7.877 6.39 14.266 14.27 14.266 7.877 0 14.266-6.388 14.266-14.266 0-7.88-6.383-14.27-14.26-14.27-7.88.002-14.27 6.39-14.27 14.27z"/><path fill="#48B9A7" d="M35.582 50.41c0 6.55-5.31 11.858-11.86 11.858S11.858 56.96 11.858 50.41c0-6.552 5.31-11.862 11.86-11.862S35.58 43.858 35.58 50.41z"/><circle fill="#D25037" cx="17.791" cy="17.79" r="17.791"/></svg>