<svg fill="#3bbca9" xmlns="http://www.w3.org/2000/svg" viewBox="0 0 486.392 486.392"><path d="M243.196 0C108.89 0 0 108.89 0 243.196s108.89 243.196 243.196 243.196 243.196-108.89 243.196-243.196C486.392 108.86 377.502 0 243.196 0zm-60.8 360.994H121.6V148.197h60.8v212.797zm-28.514-225.838c-15.747 0-28.484-12.768-28.484-28.515s12.768-28.51 28.484-28.51c15.747.03 28.515 12.8 28.515 28.52 0 15.75-12.768 28.52-28.515 28.52zm241.31 225.838h-60.798v-131.57c0-15.412-4.408-26.203-23.347-26.203-31.403 0-37.452 26.21-37.452 26.21V361h-60.8V148.2h60.8v20.336c8.694-6.657 30.4-20.307 60.8-20.307 19.698 0 60.798 11.79 60.798 83.05v129.71z"/></svg>