<svg fill="#f8c74a" xmlns="http://www.w3.org/2000/svg" width="49.652" height="49.652" viewBox="0 0 49.652 49.652"><path d="M24.826 0C11.136 0 0 11.137 0 24.826c0 13.688 11.137 24.826 24.826 24.826 13.688 0 24.826-11.138 24.826-24.826C49.652 11.136 38.516 0 24.826 0zM35.9 19.144c.012.246.018.494.018.742 0 7.55-5.746 16.255-16.26 16.255-3.226 0-6.23-.94-8.758-2.56.447.06.902.08 1.363.08 2.678 0 5.14-.91 7.097-2.44-2.5-.04-4.61-1.69-5.338-3.97.348.07.707.11 1.074.11.52 0 1.027-.07 1.506-.2-2.614-.52-4.583-2.83-4.583-5.6v-.07c.77.43 1.65.69 2.58.72-1.53-1.02-2.54-2.77-2.54-4.75 0-1.05.28-2.03.77-2.87 2.81 3.46 7.03 5.73 11.77 5.97-.1-.42-.15-.85-.15-1.3 0-3.153 2.55-5.712 5.71-5.712 1.64 0 3.12.69 4.17 1.8 1.3-.26 2.52-.73 3.63-1.39-.43 1.336-1.34 2.455-2.52 3.16 1.15-.14 2.26-.443 3.28-.9-.77 1.146-1.74 2.15-2.85 2.956z"/></svg>